<svg width="38" height="37" viewBox="0 0 38 37" fill="none" xmlns="http://www.w3.org/2000/svg">
<path d="M12.5899 29.3621C12.5899 29.511 12.4187 29.6301 12.2028 29.6301C11.9572 29.6525 11.786 29.5334 11.786 29.3621C11.786 29.2133 11.9572 29.0942 12.1731 29.0942C12.3964 29.0718 12.5899 29.1909 12.5899 29.3621ZM10.2748 29.0272C10.2227 29.176 10.3716 29.3473 10.5949 29.3919C10.7885 29.4664 11.0118 29.3919 11.0564 29.243C11.1011 29.0942 10.9597 28.9229 10.7364 28.856C10.5428 28.8038 10.3269 28.8783 10.2748 29.0272ZM13.5651 28.9006C13.3492 28.9527 13.2003 29.0942 13.2227 29.2654C13.245 29.4143 13.4385 29.511 13.6619 29.4589C13.8777 29.4068 14.0266 29.2654 14.0043 29.1165C13.982 28.9751 13.781 28.8783 13.5651 28.9006ZM18.4633 0.375C8.13838 0.375 0.240234 8.21359 0.240234 18.5385C0.240234 26.7939 5.43618 33.8584 12.8579 36.3447C13.8107 36.5159 14.1457 35.9278 14.1457 35.4439C14.1457 34.9824 14.1234 32.4365 14.1234 30.8733C14.1234 30.8733 8.91256 31.9899 7.81828 28.655C7.81828 28.655 6.96966 26.4887 5.74883 25.9304C5.74883 25.9304 4.04415 24.7617 5.86794 24.7841C5.86794 24.7841 7.72151 24.9329 8.74134 26.7046C10.3716 29.578 13.1036 28.7517 14.1681 28.2604C14.3393 27.0694 14.8231 26.2431 15.3591 25.7518C11.1979 25.2902 6.99944 24.6873 6.99944 17.5261C6.99944 15.479 7.56518 14.4517 8.75623 13.1416C8.56269 12.6577 7.92994 10.6627 8.94978 8.08704C10.5056 7.60318 14.0862 10.0969 14.0862 10.0969C15.575 9.68007 17.1755 9.46419 18.761 9.46419C20.3466 9.46419 21.9471 9.68007 23.4359 10.0969C23.4359 10.0969 27.0165 7.59573 28.5723 8.08704C29.5921 10.6701 28.9594 12.6577 28.7658 13.1416C29.9569 14.4592 30.6864 15.4864 30.6864 17.5261C30.6864 24.7096 26.3019 25.2828 22.1406 25.7518C22.8255 26.3399 23.4061 27.4565 23.4061 29.2058C23.4061 31.7145 23.3838 34.8186 23.3838 35.429C23.3838 35.9129 23.7262 36.501 24.6716 36.3298C32.1157 33.8584 37.1627 26.7939 37.1627 18.5385C37.1627 8.21359 28.7882 0.375 18.4633 0.375ZM7.47585 26.0495C7.37908 26.124 7.40141 26.2952 7.52796 26.4366C7.64707 26.5557 7.81828 26.6078 7.91505 26.5111C8.01183 26.4366 7.98949 26.2654 7.86295 26.124C7.74384 26.0049 7.57263 25.9528 7.47585 26.0495ZM6.6719 25.4466C6.61979 25.5433 6.69423 25.6625 6.84311 25.7369C6.96221 25.8113 7.1111 25.789 7.1632 25.6848C7.21531 25.588 7.14087 25.4689 6.99199 25.3945C6.84311 25.3498 6.72401 25.3721 6.6719 25.4466ZM9.08377 28.0967C8.96467 28.1934 9.00933 28.4168 9.18054 28.5582C9.35176 28.7294 9.56763 28.7517 9.66441 28.6326C9.76118 28.5359 9.71652 28.3125 9.56763 28.1711C9.40386 27.9999 9.18054 27.9776 9.08377 28.0967ZM8.23515 27.0024C8.11604 27.0768 8.11604 27.2704 8.23515 27.4416C8.35425 27.6128 8.55524 27.6872 8.65202 27.6128C8.77112 27.516 8.77112 27.3225 8.65202 27.1513C8.5478 26.98 8.35425 26.9056 8.23515 27.0024Z" fill="#F2F4F5"/>
</svg>
