<svg width="37" height="36" viewBox="0 0 37 36" fill="none" xmlns="http://www.w3.org/2000/svg">
<path d="M33.6688 0H2.80363C1.38934 0 0.240234 1.16518 0.240234 2.59554V33.4045C0.240234 34.8348 1.38934 36 2.80363 36H33.6688C35.0831 36 36.2402 34.8348 36.2402 33.4045V2.59554C36.2402 1.16518 35.0831 0 33.6688 0ZM11.1206 30.8571H5.78488V13.6768H11.1286V30.8571H11.1206ZM8.45273 11.3304C6.74113 11.3304 5.35898 9.94018 5.35898 8.23661C5.35898 6.53304 6.74113 5.14286 8.45273 5.14286C10.1563 5.14286 11.5465 6.53304 11.5465 8.23661C11.5465 9.94821 10.1643 11.3304 8.45273 11.3304ZM31.1215 30.8571H25.7858V22.5C25.7858 20.5071 25.7456 17.9438 23.0134 17.9438C20.2331 17.9438 19.8072 20.1134 19.8072 22.3554V30.8571H14.4715V13.6768H19.5902V16.0232H19.6626C20.3777 14.6732 22.1215 13.2509 24.717 13.2509C30.117 13.2509 31.1215 16.8107 31.1215 21.4393V30.8571Z" fill="#F2F4F5"/>
</svg>
