<svg width="36" height="37" viewBox="0 0 36 37" fill="none" xmlns="http://www.w3.org/2000/svg">
<path d="M29.2514 14.6257C29.2514 17.8532 28.2037 20.8346 26.4388 23.2535L35.3408 32.1625C36.2197 33.0415 36.2197 34.4689 35.3408 35.3478C34.4618 36.2268 33.0344 36.2268 32.1555 35.3478L23.2535 26.4388C20.8346 28.2108 17.8532 29.2514 14.6257 29.2514C6.54641 29.2514 0 22.705 0 14.6257C0 6.54641 6.54641 0 14.6257 0C22.705 0 29.2514 6.54641 29.2514 14.6257ZM14.6257 24.7512C20.2158 24.7512 24.7512 20.2158 24.7512 14.6257C24.7512 9.0356 20.2158 4.50022 14.6257 4.50022C9.0356 4.50022 4.50022 9.0356 4.50022 14.6257C4.50022 20.2158 9.0356 24.7512 14.6257 24.7512Z" fill="#2D2D2D"/>
</svg>
