<svg width="210" height="81" viewBox="0 0 210 81" fill="none" xmlns="http://www.w3.org/2000/svg">
<path d="M210 0H0V80.6H210V0ZM201.453 8.54598V72.0542H8.54522C8.54522 56.5667 8.54522 24.0333 8.54522 8.54598H201.453ZM20.0513 22.4003V57.9014H27.8562V43.2335H42.7241V37.1676H27.8562V28.9635H45.01V22.4003H20.0513ZM164.591 22.4003V57.9014H191.539V51.3381H172.396V42.6368H189.6V36.5709H172.396V28.9635H191.142V22.4003H164.591ZM49.5353 22.4003V57.9014H57.3422V44.0291H65.1471C67.103 44.0291 68.5128 44.46 69.3742 45.3218C70.2356 46.1838 70.8004 47.5428 71.0652 49.399C71.2628 50.8245 71.4121 52.3161 71.5128 53.8739C71.6116 55.4319 71.8763 56.7744 72.307 57.9014H80.1139C79.7503 57.4041 79.4761 56.7992 79.2934 56.0866C79.1107 55.374 78.9783 54.6197 78.8963 53.8241C78.8124 53.0287 78.7547 52.2497 78.7211 51.4873C78.6894 50.7249 78.6558 50.062 78.6222 49.4984C78.5551 48.6034 78.4321 47.7084 78.2493 46.8134C78.0666 45.9185 77.7776 45.0981 77.3786 44.3522C76.9815 43.6064 76.4688 42.9602 75.8385 42.4131C75.2083 41.8662 74.412 41.4601 73.4518 41.195V41.0956C75.4394 40.3 76.8733 39.1399 77.7515 37.6151C78.6316 36.0902 79.0698 34.2837 79.0698 32.1954C79.0698 30.8365 78.8293 29.5686 78.3482 28.3917C77.869 27.215 77.1716 26.1792 76.2599 25.2842C75.35 24.3892 74.2554 23.6848 72.9782 23.1709C71.7028 22.6573 70.2691 22.4003 68.6786 22.4003H49.5353ZM95.1291 22.4003L81.7044 57.9014H89.5615L92.3452 49.9957H105.621L108.306 57.9014H116.411L103.135 22.4003H95.1291ZM119.493 22.4003V57.9014H126.802V32.991H126.901L135.603 57.9014H141.62L150.32 32.7424H150.42V57.9014H157.729V22.4003H146.74L138.884 46.8134H138.785L130.481 22.4003H119.493ZM94.3833 44.1783L99.0073 31.1512H99.108L103.583 44.1783H94.3833ZM57.3422 38.4603V28.4663H65.8929C67.6829 28.4663 69.0254 28.8558 69.9204 29.6348C70.8154 30.4138 71.2629 31.6651 71.2629 33.3887C71.2629 35.1786 70.8154 36.4715 69.9204 37.2669C69.0254 38.0625 67.6829 38.4603 65.8929 38.4603H57.3422Z" fill="white"/>
</svg>
